<svg width="434" height="454" viewBox="0 0 434 454" fill="none" xmlns="http://www.w3.org/2000/svg">
<path d="M9.18078 236.372L217.516 444.707C222.586 449.778 230.807 449.778 235.878 444.707L254.946 425.639C260.016 420.569 260.016 412.348 254.946 407.278L46.6105 198.942C41.54 193.872 33.3192 193.872 28.2487 198.942L9.18079 218.01C4.11033 223.081 4.11032 231.302 9.18078 236.372Z" fill="black"/>
<path d="M59.7944 253L418.206 253C426.929 253 434 247.18 434 240V213C434 205.82 426.929 200 418.206 200L59.7944 200C51.0714 200 44 205.82 44 213V240C44 247.18 51.0714 253 59.7944 253Z" fill="black"/>
<path d="M46.6106 254.946L254.946 46.6106C260.016 41.5401 260.016 33.3193 254.946 28.2488L235.878 9.18086C230.807 4.1104 222.586 4.11041 217.516 9.18086L9.1809 217.516C4.11043 222.586 4.11044 230.807 9.1809 235.878L28.2489 254.946C33.3193 260.016 41.5401 260.016 46.6106 254.946Z" fill="black"/>
</svg>